<svg width="800" height="600" viewBox="0 0 800 600" xmlns="http://www.w3.org/2000/svg">
  <rect width="800" height="600" fill="#f3f4f6"/>
  <rect x="100" y="100" width="600" height="400" rx="20" ry="20" fill="#fff" stroke="#3366ff" stroke-width="4"/>
  <rect x="150" y="150" width="200" height="100" rx="10" ry="10" fill="#dbeafe"/>
  <rect x="150" y="280" width="200" height="100" rx="10" ry="10" fill="#d1fae5"/>
  <rect x="150" y="410" width="200" height="40" rx="10" ry="10" fill="#3366ff"/>
  <rect x="380" y="150" width="270" height="300" rx="10" ry="10" fill="#edf0f7"/>
  <circle cx="515" cy="220" r="70" fill="#bfdbfe"/>
  <rect x="430" y="320" width="170" height="15" rx="5" ry="5" fill="#94a3b8"/>
  <rect x="430" y="350" width="120" height="15" rx="5" ry="5" fill="#94a3b8"/>
  <rect x="430" y="380" width="150" height="15" rx="5" ry="5" fill="#94a3b8"/>
  <rect x="430" y="410" width="100" height="15" rx="5" ry="5" fill="#94a3b8"/>
  <text x="250" y="190" text-anchor="middle" font-family="Arial" font-size="24" font-weight="bold" fill="#3366ff">Sildenafil</text>
  <text x="250" y="320" text-anchor="middle" font-family="Arial" font-size="24" font-weight="bold" fill="#3366ff">Tadalafil</text>
  <text x="250" y="430" text-anchor="middle" font-family="Arial" font-size="16" font-weight="bold" fill="#fff">Vardenafil</text>
  <text x="400" y="550" text-anchor="middle" font-family="Arial" font-size="20" font-weight="bold" fill="#94a3b8">ED Medications</text>
</svg>
